General
      Complete name : Sympathy.For.Mr.Vengeance.2002.BRRip.H264.AAC.5.1ch.Gopo.mp4
      Format : MPEG-4
      Format profile : Base Media
      Codec ID : isom
      File size : 2.00 GiB
      Duration : 2h 1mn
      Overall bit rate : 2 365 Kbps
      Encoded date : UTC 2010-01-29 15:35:30
      Tagged date : UTC 2010-01-29 15:35:30
   Video #1
      ID : 1
      Format : AVC
      Format/Info : Advanced Video Codec
      Format profile : High@L4.1
      Format settings, CABAC : Yes
      Format settings, ReFrames : 5 frames
      Codec ID : avc1
      Codec ID/Info : Advanced Video Coding
      Duration : 2h 1mn
      Bit rate mode : Variable
      Bit rate : 2 033 Kbps
      Maximum bit rate : 10.2 Mbps
      Width : 1 280 pixels
      Height : 552 pixels
      Display aspect ratio : 2.35:1
      Frame rate mode : Constant
      Frame rate : 23.976 fps
      Resolution : 24 bits
      Colorimetry : 4:2:0
      Scan type : Progressive
      Bits/(Pixel*Frame) : 0.120
      Stream size : 1.72 GiB (86%)
      Writing library : x264 core 80 r1376M 3feaec2
      Encoding settings : cabac=1 / ref=5 / deblock=1:0:0 / analyse=0x3:0x113 / me=hex / subme=7 / psy=1 / psy_rd=1.0:0.0 / mixed_ref=1 / me_range=16 / chroma_me=1 / trellis=0 / 8x8dct=1 / cqm=0 / deadzone=21,11 / fast_pskip=1 / chroma_qp_offset=-2 / threads=1 / sliced_threads=0 / nr=0 / decimate=1 / mbaff=0 / constrained_intra=0 / bframes=3 / b_pyramid=0 / b_adapt=1 / b_bias=0 / direct=1 / wpredb=1 / wpredp=2 / keyint=250 / keyint_min=25 / scenecut=40 / rc_lookahead=40 / rc=2pass / mbtree=1 / bitrate=2033 / ratetol=1.0 / qcomp=0.60 / qpmin=10 / qpmax=51 / qpstep=4 / cplxblur=20.0 / qblur=0.5 / vbv_maxrate=31250 / vbv_bufsize=31250 / ip_ratio=1.40 / aq=1:1.00
      Encoded date : UTC 2010-01-28 18:56:03
      Tagged date : UTC 2010-01-29 15:38:38
   Audio #2
      ID : 2
      Format : AAC
      Format/Info : Advanced Audio Codec
      Format version : Version 4
      Format profile : LC
      Format settings, SBR : No
      Codec ID : 40
      Duration : 2h 1mn
      Bit rate mode : Variable
      Bit rate : 330 Kbps
      Maximum bit rate : 494 Kbps
      Channel(s) : 6 channels
      Channel positions : Front: L C R, Rear: L R, LFE
      Sampling rate : 48.0 KHz
      Resolution : 16 bits
      Stream size : 285 MiB (14%)
      Encoded date : UTC 2010-01-29 15:38:23
      Tagged date : UTC 2010-01-29 15:38:38
	Sample : YES
	Subtitle : English,Romanian

PLOT

In Seoul, the deaf and dumb worker Ryu is very attached to his sister, who needs a transplantation of kidney. He tries to donate his own kidney to his sister, but his blood B type is not compatible with her. When Ryu is fired from Ilshin Electronics, he meets illegal dealers of organs and the criminals propose Ryu's kidney plus ten millions Won per a kidney suitable for his sister. Ryu accepts the trade, but he does not have money to pay for the surgery. His anarchist revolutionary girlfriend Cha Young-mi convinces him to kidnap Yossun, the daughter of his former employer Park, who owns Ilshin Electronics. However, a tragedy happens, generating revenge and a series of acts of violence.
Director: Chan-wook Park
CASTING 
     
      Kang-ho Song	... 	Park Dong-jin
	Ha-kyun Shin	... 	Ryu
	Du-na Bae	... 	Cha Yeong-mi
	Ji-Eun Lim	... 	Ryu's Sister
	Bo-bae Han	... 	Yu-sun
	Se-dong Kim	... 	Chief of Staff
	Dae-yeon Lee	... 	Choe
rest of cast listed alphabetically:
	Ju-bong Gi		
	Gyu-su Jeong		
	Jae-yeong Jeong	... 	Husband of Dong-jin's ex-wife's
	Kan-hie Lee	... 	Park Dong-jin's ex-wife
	Kwang-rok Oh	... 	Anarchist
	Seung-wan Ryoo	... 	Delivery Boy
	Seung-beom Ryu	... 	Retarded Boy at River

SOURCE: Sympathy.For.Mr.Vengeance.2002.720p.BluRay.x264-CiNEFiLE.mkv

---------

   General
      Complete name : Oldboy.2003.BRRip.H264.AAC.5.1ch.Gopo.mp4
      Format : MPEG-4
      Format profile : Base Media
      Codec ID : isom
      File size : 2.00 GiB
      Duration : 1h 59mn
      Overall bit rate : 2 386 Kbps
      Encoded date : UTC 2010-01-31 16:51:52
      Tagged date : UTC 2010-01-31 16:51:52
   Video #1
      ID : 1
      Format : AVC
      Format/Info : Advanced Video Codec
      Format profile : High@L4.1
      Format settings, CABAC : Yes
      Format settings, ReFrames : 5 frames
      Codec ID : avc1
      Codec ID/Info : Advanced Video Coding
      Duration : 1h 59mn
      Bit rate mode : Variable
      Bit rate : 2 055 Kbps
      Maximum bit rate : 9 804 Kbps
      Width : 1 280 pixels
      Height : 552 pixels
      Display aspect ratio : 2.35:1
      Frame rate mode : Constant
      Frame rate : 23.976 fps
      Resolution : 24 bits
      Colorimetry : 4:2:0
      Scan type : Progressive
      Bits/(Pixel*Frame) : 0.121
      Stream size : 1.72 GiB (86%)
      Writing library : x264 core 84 r1416 fcf70c2
      Encoding settings : cabac=1 / ref=5 / deblock=1:0:0 / analyse=0x3:0x113 / me=hex / subme=7 / psy=1 / psy_rd=1.0:0.0 / mixed_ref=1 / me_range=16 / chroma_me=1 / trellis=0 / 8x8dct=1 / cqm=0 / deadzone=21,11 / fast_pskip=1 / chroma_qp_offset=-2 / threads=1 / sliced_threads=0 / nr=0 / decimate=1 / mbaff=0 / constrained_intra=0 / bframes=3 / b_pyramid=0 / b_adapt=1 / b_bias=0 / direct=1 / wpredb=1 / wpredp=2 / keyint=250 / keyint_min=25 / scenecut=40 / intra_refresh=0 / rc_lookahead=40 / rc=2pass / mbtree=1 / bitrate=2055 / ratetol=1.0 / qcomp=0.60 / qpmin=10 / qpmax=51 / qpstep=4 / cplxblur=20.0 / qblur=0.5 / vbv_maxrate=31250 / vbv_bufsize=31250 / ip_ratio=1.40 / aq=1:1.00 / cabac=1 / ref=5 / deblock=1:0:0 / analyse=0x3:0x113 / me=hex / subme=7 / psy=1 / psy_rd=1.0:0.0 / mixed_ref=1 / me_range=16 / chroma_me=1 / trellis=0 / 8x8dct=1 / cqm=0 / deadzone=21,11 / fast_pskip=1 / chroma_qp_offset=-2 / threads=1 / sliced_threads=0 / nr=0 / decimate=1 / mbaff=0 / constrained_intra=0 / bframes=3 / b_pyramid=0 / b_adapt=1 / b_bias=0 / direct=1 / wpredb=1 / wpredp=2 / keyint=250 / keyint_min=25 / scenecut=40 / intra_refresh=0 / rc_lookahead=40 / rc=2pass / mbtree=1 / bitrate=2055 / ratetol=1.0 / qcomp=0.60 / qpmin=10 / qpmax=51 / qpstep=4 / cplxblur=20.0 / qblur=0.5 / vbv_maxrate=31250 / vbv_bufsize=31250 / ip_ratio=1.40 / aq=1:1.00
      Encoded date : UTC 2010-01-30 21:53:26
      Tagged date : UTC 2010-01-31 16:53:27
   Audio #2
      ID : 2
      Format : AAC
      Format/Info : Advanced Audio Codec
      Format version : Version 4
      Format profile : LC
      Format settings, SBR : No
      Codec ID : 40
      Duration : 1h 59mn
      Bit rate mode : Variable
      Bit rate : 327 Kbps
      Maximum bit rate : 520 Kbps
      Channel(s) : 6 channels
      Channel positions : Front: L C R, Rear: L R, LFE
      Sampling rate : 48.0 KHz
      Resolution : 16 bits
      Stream size : 281 MiB (14%)
      Encoded date : UTC 2010-01-31 16:53:15
      Tagged date : UTC 2010-01-31 16:53:27
	Sample : YES
	Subtitle : English,Romanian

PLOT
An average man is kidnapped and imprisoned in a shabby cell for 15 years without explanation. He then is released, equipped with money, a cellphone and expensive clothes. As he strives to explain his imprisonment and get his revenge, he soon finds out that not only his kidnapper has still plans for him, but that those plans will serve as the even worse finale to 15 years of imprisonment.
Director: Chan-wook Park
CASTING 

	Min-sik Choi	... 	Dae-su Oh
	Ji-tae Yu	... 	Woo-jin Lee
	Hye-jeong Kang	... 	Mi-do
	Dae-han Ji	... 	No Joo-hwan
	Dal-su Oh	... 	Park Cheol-woong
	Byeong-ok Kim	... 	Mr. Han
	Seung-Shin Lee	... 	Yoo Hyung-ja
	Jin-seo Yun	... 	Lee Soo-ah
	Dae-yeon Lee	... 	Beggar
	Kwang-rok Oh	... 	Suicidal Man
	Tae-kyung Oh	... 	Young Dae-su
	Yeon-suk Ahn	... 	Young Woo-jin
	Il-han Oo	... 	Young Joo-hwan
	Su-hyeon Kim		
	Seung-jin Lee

SOURCE: Oldboy.2003.720p.BluRay.DTS-ES.x264-ESiR.mkv

---------

   General
      Complete name : Sympathy.for.Lady.Vengeance.2005.BRRip.H264.AAC.5.1ch.Gopo.mp4
      Format : MPEG-4
      Format profile : Base Media
      Codec ID : isom
      File size : 2.00 GiB
      Duration : 1h 55mn
      Overall bit rate : 2 484 Kbps
      Encoded date : UTC 2010-01-31 16:55:10
      Tagged date : UTC 2010-01-31 16:55:10
   Video #1
      ID : 1
      Format : AVC
      Format/Info : Advanced Video Codec
      Format profile : High@L4.1
      Format settings, CABAC : Yes
      Format settings, ReFrames : 5 frames
      Codec ID : avc1
      Codec ID/Info : Advanced Video Coding
      Duration : 1h 55mn
      Bit rate mode : Variable
      Bit rate : 2 156 Kbps
      Maximum bit rate : 22.4 Mbps
      Width : 1 280 pixels
      Height : 544 pixels
      Display aspect ratio : 2.35:1
      Frame rate mode : Constant
      Frame rate : 24.000 fps
      Resolution : 24 bits
      Colorimetry : 4:2:0
      Scan type : Progressive
      Bits/(Pixel*Frame) : 0.129
      Stream size : 1.73 GiB (87%)
      Writing library : x264 core 80 r1376M 3feaec2
      Encoding settings : cabac=1 / ref=5 / deblock=1:0:0 / analyse=0x3:0x113 / me=hex / subme=7 / psy=1 / psy_rd=1.0:0.0 / mixed_ref=1 / me_range=16 / chroma_me=1 / trellis=0 / 8x8dct=1 / cqm=0 / deadzone=21,11 / fast_pskip=1 / chroma_qp_offset=-2 / threads=1 / sliced_threads=0 / nr=0 / decimate=1 / mbaff=0 / constrained_intra=0 / bframes=3 / b_pyramid=0 / b_adapt=1 / b_bias=0 / direct=1 / wpredb=1 / wpredp=2 / keyint=250 / keyint_min=25 / scenecut=40 / rc_lookahead=40 / rc=2pass / mbtree=1 / bitrate=2156 / ratetol=1.0 / qcomp=0.60 / qpmin=10 / qpmax=51 / qpstep=4 / cplxblur=20.0 / qblur=0.5 / vbv_maxrate=31250 / vbv_bufsize=31250 / ip_ratio=1.40 / aq=1:1.00
      Encoded date : UTC 2010-01-29 21:59:30
      Tagged date : UTC 2010-01-31 16:56:51
   Audio #2
      ID : 2
      Format : AAC
      Format/Info : Advanced Audio Codec
      Format version : Version 4
      Format profile : LC
      Format settings, SBR : No
      Codec ID : 40
      Duration : 1h 55mn
      Bit rate mode : Variable
      Bit rate : 326 Kbps
      Maximum bit rate : 445 Kbps
      Channel(s) : 6 channels
      Channel positions : Front: L C R, Rear: L R, LFE
      Sampling rate : 48.0 KHz
      Resolution : 16 bits
      Stream size : 268 MiB (13%)
      Encoded date : UTC 2010-01-31 16:56:38
      Tagged date : UTC 2010-01-31 16:56:51

PLOT
After thirteen and half years in prison for kidnapping and murdering the boy Park Won-mo, Geum-ja Lee is released and tries to fix her life. She finds a job in a bakery; she orders the manufacturing of a special weapon; she reunites with her daughter, who was adopted by an Australian family; and she plots revenge against the real killer of Won-mo, the English teacher Mr. Baek. With the support of former inmates from prison, Geum-ja seeks an unattained redemption with her vengeance.
Director: Chan-wook Park
CASTING 
     
      Yeong-ae Lee	... 	Geum-ja Lee
	Min-sik Choi	... 	Mr. Baek
rest of cast listed alphabetically:
	Tony Barry	... 	StepFather, Australian
	Anne Cordiner	... 	StepMother, Australian
	Su-hee Go	... 	Ma-nyeo
	Hye-jeong Kang	... 	Tv announcer
	Bu-seon Kim	... 	So-young Woo
	Byeong-ok Kim	... 	Preacher
	Shi-hoo Kim	... 	Geun-shik
	Yea-young Kwon	... 	Jenny
	Dae-yeon Lee	... 	Prison head
	Seung-Shin Lee	... 	Yi-jeong Park
	Su-gyeong Lim	... 	A prison officer
	Il-woo Nam	... 	Detective Choi
	Dal-su Oh	... 	Mr. Chang
	Kwang-rok Oh	... 	Se-hyun's Father
	Mi-ran Ra	... 	Oh, Su-hee
	Seung-wan Ryoo	... 	A passerby
	Yeong-ju Seo	... 	Kim, Yang-hee
	Ha-kyun Shin	... 	A hired assassin 2
	Kang-ho Song	... 	A hired assassin 1
	Ji-tae Yu	... 	A grown-up Won-mo
	Jin-seo Yun	... 	A prisoner
	Sample : YES
	Subtitle : English,Romanian

SOURCE: Sympathy.for.Lady.Vengeance.2005.Blu-ray.1080p.x264.DTS-MySiLU.mkv

Notes: For best performance I suggest you to use KMPlayer(find it with google) for playback
I haven't tested the movies on a PS3 or Xbox or other devices than PC because I don't own one of them but feel free to test them if you have the oportunity.
